<svg width="58" height="60" viewBox="0 0 58 60" fill="none" xmlns="http://www.w3.org/2000/svg">
<ellipse cx="28.6814" cy="30" rx="28.6814" ry="30" transform="matrix(-1 0 0 1 57.3627 0)" fill="white"/>
<path d="M10.6608 31.7678C9.68447 30.7915 9.68447 29.2085 10.6608 28.2322L26.5707 12.3223C27.547 11.346 29.1299 11.346 30.1062 12.3223C31.0825 13.2986 31.0825 14.8816 30.1062 15.8579L15.9641 30L30.1062 44.1421C31.0825 45.1184 31.0825 46.7014 30.1062 47.6777C29.1299 48.654 27.547 48.654 26.5707 47.6777L10.6608 31.7678ZM44.9341 32.5L12.4285 32.5L12.4285 27.5L44.9341 27.5L44.9341 32.5Z" fill="#626262"/>
</svg>
