<svg width="49" height="49" viewBox="0 0 49 49" fill="none" xmlns="http://www.w3.org/2000/svg">
<path d="M35.7292 13.271H35.7496M14.2917 4.0835H34.7084C40.3463 4.0835 44.9167 8.65392 44.9167 14.2918V34.7085C44.9167 40.3464 40.3463 44.9168 34.7084 44.9168H14.2917C8.6538 44.9168 4.08337 40.3464 4.08337 34.7085V14.2918C4.08337 8.65392 8.6538 4.0835 14.2917 4.0835ZM32.6667 23.2139C32.9187 24.9131 32.6284 26.6484 31.8373 28.1732C31.0462 29.6979 29.7944 30.9343 28.26 31.7066C26.7257 32.4789 24.9869 32.7477 23.2909 32.4748C21.595 32.2019 20.0283 31.4012 18.8137 30.1865C17.599 28.9719 16.7983 27.4052 16.5254 25.7093C16.2525 24.0133 16.5213 22.2745 17.2936 20.7402C18.0659 19.2058 19.3023 17.9541 20.8271 17.1629C22.3518 16.3718 24.0871 16.0815 25.7863 16.3335C27.5195 16.5905 29.1241 17.3982 30.3631 18.6371C31.6021 19.8761 32.4097 21.4807 32.6667 23.2139Z" stroke="white" stroke-width="4" stroke-linecap="round" stroke-linejoin="round"/>
</svg>
