<svg width="37" height="37" viewBox="0 0 37 37" fill="none" xmlns="http://www.w3.org/2000/svg">
<path d="M6.16659 30.8332C5.31867 30.8332 4.5928 30.5313 3.98898 29.9274C3.38516 29.3236 3.08325 28.5978 3.08325 27.7498V9.24984C3.08325 8.40192 3.38516 7.67605 3.98898 7.07223C4.5928 6.46841 5.31867 6.1665 6.16659 6.1665H30.8333C31.6812 6.1665 32.407 6.46841 33.0109 7.07223C33.6147 7.67605 33.9166 8.40192 33.9166 9.24984V27.7498C33.9166 28.5978 33.6147 29.3236 33.0109 29.9274C32.407 30.5313 31.6812 30.8332 30.8333 30.8332H6.16659ZM18.4999 20.0415L6.16659 12.3332V27.7498H30.8333V12.3332L18.4999 20.0415ZM18.4999 16.9582L30.8333 9.24984H6.16659L18.4999 16.9582ZM6.16659 12.3332V9.24984V27.7498V12.3332Z" fill="white"/>
</svg>
