<svg width="49" height="49" viewBox="0 0 49 49" fill="none" xmlns="http://www.w3.org/2000/svg">
<path d="M46.9583 6.12502C45.0032 7.50412 42.8384 8.55891 40.5475 9.24877C39.3178 7.83494 37.6837 6.83285 35.866 6.37804C34.0483 5.92322 32.1348 6.03763 30.3842 6.70578C28.6336 7.37393 27.1305 8.56359 26.0781 10.1139C25.0257 11.6641 24.4748 13.5002 24.5 15.3738V17.4154C20.912 17.5085 17.3567 16.7127 14.1508 15.0991C10.9448 13.4854 8.18769 11.1039 6.12496 8.16669C6.12496 8.16669 -2.04171 26.5417 16.3333 34.7084C12.1285 37.5625 7.11957 38.9937 2.04163 38.7917C20.4166 49 42.875 38.7917 42.875 15.3125C42.8731 14.7438 42.8184 14.1765 42.7116 13.6179C44.7954 11.563 46.2658 8.96848 46.9583 6.12502Z" stroke="white" stroke-width="4" stroke-linecap="round" stroke-linejoin="round"/>
</svg>
