<svg width="49" height="49" viewBox="0 0 49 49" fill="none" xmlns="http://www.w3.org/2000/svg">
<path d="M46.0192 13.1073C45.7767 12.1384 45.2827 11.2506 44.5873 10.5336C43.8918 9.81666 43.0195 9.29592 42.0584 9.024C38.5467 8.1665 24.5 8.1665 24.5 8.1665C24.5 8.1665 10.4534 8.1665 6.9417 9.10567C5.98057 9.37759 5.10823 9.89833 4.41278 10.6153C3.71732 11.3323 3.22339 12.22 2.98086 13.189C2.33817 16.7528 2.0238 20.3681 2.04169 23.9894C2.01879 27.638 2.33318 31.2808 2.98086 34.8715C3.24824 35.8104 3.75324 36.6644 4.44707 37.3511C5.14091 38.0377 6.00012 38.5339 6.9417 38.7915C10.4534 39.7307 24.5 39.7307 24.5 39.7307C24.5 39.7307 38.5467 39.7307 42.0584 38.7915C43.0195 38.5196 43.8918 37.9988 44.5873 37.2819C45.2827 36.5649 45.7767 35.6771 46.0192 34.7082C46.6569 31.1712 46.9713 27.5834 46.9584 23.9894C46.9813 20.3409 46.6669 16.698 46.0192 13.1073Z" stroke="white" stroke-width="4" stroke-linecap="round" stroke-linejoin="round"/>
<path d="M19.9063 30.6657L31.6459 23.9894L19.9063 17.3132V30.6657Z" stroke="white" stroke-width="4" stroke-linecap="round" stroke-linejoin="round"/>
</svg>
